<?xml version="1.0" encoding="utf-8"?>
<!-- Generator: Adobe Illustrator 14.0.0, SVG Export Plug-In . SVG Version: 6.00 Build 43363)  -->
<!DOCTYPE svg PUBLIC "-//W3C//DTD SVG 1.0//EN" "http://www.w3.org/TR/2001/REC-SVG-20010904/DTD/svg10.dtd">
<svg version="1.0" id="Layer_1" xmlns="http://www.w3.org/2000/svg" xmlns:xlink="http://www.w3.org/1999/xlink" x="0px" y="0px"
	 width="566.93px" height="600.94px" viewBox="0 0 566.93 600.94" enable-background="new 0 0 566.93 600.94" xml:space="preserve">
<g>
	<circle fill="#231F20" stroke="#231F20" cx="283.44" cy="300.47" r="274.576"/>
	<g>
		<path fill="#FFFFFF" d="M431.684,460.947h-86.976V293.184c0-35.49-1.855-58.449-5.57-68.871
			c-3.716-10.417-9.75-18.519-18.109-24.298c-8.356-5.775-18.415-8.667-30.177-8.667c-15.065,0-28.585,4.13-40.549,12.381
			c-11.969,8.254-20.172,19.191-24.608,32.81c-4.439,13.619-6.654,38.798-6.654,75.525v148.883h-86.978V132.229h80.787v48.287
			c28.679-37.143,64.793-55.715,108.335-55.715c19.189,0,36.726,3.458,52.618,10.369c15.89,6.917,27.909,15.739,36.063,26.465
			c8.148,10.731,13.819,22.905,17.021,36.524c3.197,13.619,4.797,33.12,4.797,58.501V460.947z"/>
	</g>
</g>
</svg>
